<svg width="32" height="32" viewBox="0 0 32 32" fill="none" xmlns="http://www.w3.org/2000/svg">
<rect width="32" height="32" rx="16" fill="#8C97F0"/>
<path d="M21.0312 4.8125C24.6377 4.8127 27.5615 7.73729 27.5615 11.3438C27.5615 12.0208 27.5026 12.5507 27.3447 13.084C27.1856 13.6213 26.9189 14.187 26.4746 14.9258C25.573 16.4248 24.0181 18.5185 21.3408 22.3994C21.1906 22.6164 20.8689 22.6164 20.7188 22.3994C18.0424 18.5182 16.4883 16.4247 15.5869 14.9258C15.1425 14.1868 14.8759 13.6213 14.7168 13.084C14.5589 12.5507 14.5 12.0208 14.5 11.3438C14.5 7.73717 17.4247 4.8125 21.0312 4.8125Z" fill="#1C3184" stroke="#8C97F0"/>
<path d="M15.4062 7.625C19.0127 7.6252 21.9365 10.5498 21.9365 14.1562C21.9365 14.8333 21.8776 15.3632 21.7197 15.8965C21.5606 16.4338 21.2939 16.9995 20.8496 17.7383C19.948 19.2373 18.3931 21.331 15.7158 25.2119C15.5656 25.4289 15.2439 25.4289 15.0938 25.2119C12.4174 21.3307 10.8633 19.2372 9.96191 17.7383C9.51753 16.9993 9.25092 16.4338 9.0918 15.8965C8.93386 15.3632 8.87502 14.8333 8.875 14.1562C8.875 10.5497 11.7997 7.625 15.4062 7.625Z" fill="#1C3184" stroke="#8C97F0"/>
<path d="M9.78125 10.4375C13.3877 10.4377 16.3115 13.3623 16.3115 16.9688C16.3115 17.6458 16.2526 18.1757 16.0947 18.709C15.9356 19.2463 15.6689 19.812 15.2246 20.5508C14.323 22.0498 12.7681 24.1435 10.0908 28.0244C9.94061 28.2414 9.6189 28.2414 9.46875 28.0244C6.79239 24.1432 5.23829 22.0497 4.33691 20.5508C3.89253 19.8118 3.62592 19.2463 3.4668 18.709C3.30886 18.1757 3.25002 17.6458 3.25 16.9688C3.25 13.3622 6.17467 10.4375 9.78125 10.4375Z" fill="#1C2749" stroke="#8C97F0"/>
</svg>
