<svg width="1024" height="1024" viewBox="0 0 1024 1024" fill="none" xmlns="http://www.w3.org/2000/svg">
<rect width="1024" height="1024" rx="128" fill="#8C97F0"/>
<path d="M672.988 146C792.817 146 889.976 243.159 889.976 362.988C889.976 385.166 888.046 402.943 882.706 420.974C877.348 439.066 868.44 457.804 854.031 481.762C825.012 530.011 774.906 597.533 689.494 721.345C681.631 732.705 664.952 732.882 656.815 721.878L656.435 721.346C571.047 597.516 520.953 529.991 491.939 481.744C477.533 457.788 468.626 439.053 463.269 420.964C457.929 402.936 456 385.163 456 362.988C456 243.159 553.159 146 672.988 146Z" fill="#1C3184" stroke="#8C97F0" stroke-width="16"/>
<path d="M492.988 236C612.817 236 709.976 333.159 709.976 452.988C709.976 475.166 708.046 492.943 702.706 510.974C697.348 529.066 688.44 547.804 674.031 571.762C645.012 620.011 594.906 687.533 509.494 811.345C501.631 822.705 484.952 822.882 476.815 811.878L476.435 811.346C391.047 687.516 340.953 619.991 311.939 571.744C297.533 547.788 288.626 529.053 283.269 510.964C277.929 492.936 276 475.163 276 452.988C276 333.159 373.159 236 492.988 236Z" fill="#1C3184" stroke="#8C97F0" stroke-width="16"/>
<path d="M312.988 326C432.817 326 529.976 423.159 529.976 542.988C529.976 565.166 528.046 582.943 522.706 600.974C517.348 619.066 508.44 637.804 494.031 661.762C465.012 710.011 414.906 777.533 329.494 901.345C321.631 912.705 304.952 912.882 296.815 901.878L296.435 901.346C211.047 777.516 160.953 709.991 131.939 661.744C117.533 637.788 108.626 619.053 103.269 600.964C97.9291 582.936 96 565.163 96 542.988C96 423.159 193.159 326 312.988 326Z" fill="#1C2749" stroke="#8C97F0" stroke-width="16"/>
</svg>
